<?xml version="1.0" standalone="no"?>
<!DOCTYPE svg PUBLIC "-//W3C//DTD SVG 20010904//EN"
 "http://www.w3.org/TR/2001/REC-SVG-20010904/DTD/svg10.dtd">
<svg version="1.0" xmlns="http://www.w3.org/2000/svg"
 width="256.000000pt" height="256.000000pt" viewBox="0 0 256.000000 256.000000"
 preserveAspectRatio="xMidYMid meet">
<metadata>
Created by potrace 1.11, written by Peter Selinger 2001-2013
</metadata>
<g transform="translate(0.000000,256.000000) scale(0.100000,-0.100000)"
fill="#000000" stroke="none">
<path d="M80 2389 c-19 -11 -45 -34 -57 -52 l-23 -31 0 -1078 0 -1078 1280 0
1280 0 -2 1082 c-3 1065 -3 1083 -23 1110 -11 15 -38 37 -60 48 -39 20 -56 20
-1200 20 -1147 -1 -1160 -1 -1195 -21z m2361 -105 c8 -10 13 -47 14 -100 l1
-84 -1175 2 -1176 3 0 78 c-1 132 -150 117 1174 117 1032 0 1150 -2 1162 -16z
m9 -293 c3 0 5 -389 5 -863 l0 -863 -1175 0 -1175 0 0 860 c-1 473 2 862 6
865 6 4 2322 5 2339 1z"/>
<path d="M1430 1743 c-13 -27 -37 -84 -55 -128 -78 -193 -209 -513 -270 -660
-92 -223 -135 -333 -135 -345 0 -15 38 -50 53 -50 27 0 53 36 84 115 42 106
91 225 103 250 5 11 23 56 41 100 29 75 39 101 76 185 8 19 26 63 39 98 13 34
31 79 40 100 30 68 33 77 63 152 16 41 38 95 49 119 21 45 20 90 -1 103 -7 4
-24 8 -38 8 -22 0 -31 -8 -49 -47z"/>
<path d="M670 1410 c-74 -43 -160 -91 -190 -108 -59 -31 -83 -69 -64 -99 11
-18 357 -219 393 -228 48 -12 82 54 44 87 -10 8 -75 48 -145 88 -71 40 -128
76 -128 79 0 7 29 25 101 64 13 7 61 34 107 61 72 42 82 51 82 76 0 29 -16 49
-46 54 -11 2 -80 -31 -154 -74z"/>
<path d="M1706 1471 c-17 -19 -21 -49 -8 -67 8 -11 119 -79 217 -130 32 -18
61 -36 62 -41 2 -5 -58 -45 -133 -88 -75 -44 -141 -87 -147 -96 -16 -26 0 -66
29 -73 21 -6 62 14 215 100 104 59 194 116 200 126 24 45 6 61 -187 172 -103
58 -197 108 -210 110 -13 3 -29 -3 -38 -13z"/>
</g>
</svg>
